<svg width="112" height="55" viewBox="0 0 112 55" fill="none" xmlns="http://www.w3.org/2000/svg">
<g clip-path="url(#clip0_118079_22184)">
<path d="M109.925 13.4064H110.151C110.265 13.4064 110.378 13.4064 110.378 13.5791C110.378 13.7517 110.208 13.7517 110.095 13.7517H109.925V13.4064ZM109.925 13.8667H110.095L110.378 14.3846H110.548L110.208 13.8667C110.378 13.8667 110.492 13.7517 110.492 13.5791C110.492 13.3489 110.378 13.2338 110.095 13.2338H109.641V14.3846H109.811V13.8667H109.925Z" fill="#F05123"/>
<path d="M110.151 12.9461C110.605 12.9461 110.945 13.2914 110.945 13.8092C110.945 14.2695 110.605 14.6723 110.151 14.6723C109.698 14.6723 109.358 14.3271 109.358 13.8092C109.358 13.3489 109.698 12.9461 110.151 12.9461ZM110.151 14.7874C110.662 14.7874 111.115 14.3846 111.115 13.8092C111.115 13.2338 110.662 12.8311 110.151 12.8311C109.641 12.8311 109.188 13.2338 109.188 13.8092C109.131 14.3846 109.584 14.7874 110.151 14.7874Z" fill="#F05123"/>
<path d="M101.081 19.563C101.081 19.2753 101.194 18.9301 101.364 18.4698C101.534 18.0095 101.648 17.6643 101.761 17.3766C101.874 17.0889 102.045 16.8012 102.215 16.571C102.385 16.3409 102.668 16.1683 102.895 15.9956C103.178 15.823 103.519 15.7655 103.915 15.7655C104.142 15.7655 104.312 15.8806 104.482 16.1683C104.652 16.4559 104.709 16.7436 104.709 17.2039C104.709 17.4916 104.539 17.8944 104.199 18.2972C103.859 18.7575 103.519 19.1027 103.178 19.3904C102.838 19.6781 102.498 19.8507 102.101 20.0233C101.704 20.1959 101.364 20.2535 101.024 20.2535C101.081 20.0809 101.081 19.8507 101.081 19.563ZM74.2091 20.311C74.1524 21.1166 73.9823 21.9221 73.6421 22.7276C73.2453 23.7633 72.6784 24.2812 72.0548 24.2812C71.7146 24.2812 71.4312 24.1085 71.2044 23.7058C70.8643 23.0729 70.8076 22.2098 70.9776 21.0015C71.0343 20.4261 71.5446 19.3904 72.3949 17.8369C73.1886 16.3984 74.1524 15.6504 75.2295 15.6504L74.2091 20.311ZM73.8689 31.4735C73.8122 31.9338 73.7555 32.3365 73.6988 32.6818C73.6421 33.027 73.5854 33.3147 73.5288 33.6024C73.4154 34.1202 73.2453 34.523 73.1886 34.8107C73.0752 35.0984 72.9618 35.4436 72.8485 35.7313C72.7351 36.0765 72.6217 36.3067 72.5083 36.4793C72.3949 36.6519 72.2816 36.8245 72.1115 36.9396C71.9414 37.1122 71.828 37.1697 71.6579 37.2273C71.4879 37.2848 71.3178 37.2848 71.091 37.2848C70.4674 37.2848 70.2974 36.8245 70.6375 35.9614C71.0343 34.8682 71.4879 33.8325 72.1115 32.7968C72.7351 31.7611 73.3587 31.0131 74.039 30.5528C73.9256 30.6679 73.9256 31.0131 73.8689 31.4735ZM67.0659 28.4815C63.9479 28.3664 61.3401 26.5827 60.8866 26.2375C60.8299 26.1799 60.7732 26.1799 60.7165 26.1799C60.6598 26.1799 60.6031 26.1799 60.5464 26.2375C59.7528 26.8704 58.8457 27.3882 57.9953 27.791C57.0883 28.1938 56.1245 28.4239 55.1607 28.4815C54.4238 28.4815 53.8002 28.3664 53.1766 28.0787C52.5529 27.8485 52.0427 27.5033 51.5892 27.043C51.1357 26.6402 50.7955 26.1224 50.5121 25.6045C50.2853 25.0867 50.1152 24.5113 50.1152 23.9359C50.1152 23.4756 50.1719 22.9578 50.342 22.4975C50.5121 22.0372 50.7388 21.5769 51.0223 21.1741C51.3057 20.7713 51.7593 20.4261 52.2128 20.1959C52.6663 19.9658 53.2899 19.7932 53.9702 19.7932C55.0474 19.7932 56.0678 19.9658 56.8615 20.311C57.7119 20.6562 58.5055 21.059 59.2425 21.5769C59.3559 21.6919 59.526 21.6344 59.6394 21.5193C60.0929 21.0015 60.4897 20.4261 60.8866 19.7932C61.2834 19.1602 61.6236 18.5273 61.907 17.8944C62.1905 17.2615 62.4172 16.571 62.5873 15.9381C62.7574 15.2476 62.8141 14.6147 62.8141 13.9243C62.8141 12.831 62.7007 11.968 62.5306 11.2775C62.3039 10.587 62.0204 10.0117 61.6803 9.60889C61.3401 9.20612 60.9433 8.91842 60.4897 8.74581C59.5827 8.40058 58.6756 8.45812 57.8252 8.80335C57.4284 8.97596 57.0316 9.14858 56.6347 9.49381C55.841 10.1267 55.4442 10.8747 55.4442 11.6227C55.4442 12.1981 55.7277 12.716 56.1812 13.0612C56.6914 13.4064 57.2583 13.6941 57.9386 13.8667C57.5418 14.327 55.841 15.1326 54.9907 15.3052C54.7639 15.3627 54.5938 15.3627 54.4238 15.3627C52.8931 15.3627 51.986 14.0969 51.7026 13.5215C51.4758 13.1187 51.3624 12.6009 51.3624 11.968C51.3624 11.1624 51.5892 10.2993 51.986 9.37873C52.4396 8.45812 53.0065 7.65258 53.7435 7.0772C54.4805 6.44428 55.3875 5.92643 56.408 5.5812C57.4284 5.17843 58.5622 5.00582 59.6961 5.00582C59.9795 5.00582 60.3764 5.06336 60.9433 5.12089C61.4535 5.17843 62.0204 5.29351 62.5873 5.52366C63.1542 5.69628 63.7778 5.98397 64.4014 6.3292C64.9684 6.67443 65.5353 7.13474 66.0455 7.71012C66.499 8.2855 66.9526 9.0335 67.236 10.0117C67.5762 10.9898 67.6895 12.0255 67.6895 13.1763C67.6895 13.8092 67.5762 14.4996 67.4061 15.3627C67.1793 16.2258 66.8959 17.1464 66.499 18.067C66.1022 19.0452 65.592 20.0233 65.0251 21.0015C64.4581 21.9796 63.7778 22.9578 63.0409 23.8209C62.9842 23.8784 62.9275 23.9935 62.9842 24.1085C62.9842 24.2236 63.0409 24.2812 63.1542 24.3387C63.2109 24.3387 63.2676 24.3962 63.381 24.4538C64.0046 24.799 65.762 25.7196 67.3494 25.7196C67.7462 25.7196 68.0864 25.6621 68.4265 25.547C68.6533 25.8922 68.9368 26.1799 69.3336 26.4101C69.9572 26.8704 70.5808 27.043 71.3178 27.043C71.4312 27.043 71.5446 27.043 71.6579 27.043C69.3903 28.3088 68.1998 28.539 67.0659 28.4815ZM44.7862 16.5135V16.3984V15.7655C44.7862 15.4778 44.7862 15.1901 44.7862 14.8449C44.7862 14.4996 44.7862 14.0969 44.8429 13.6366C44.8429 13.1763 44.8996 12.7735 44.9563 12.3132C44.9563 12.083 45.013 11.6803 45.0697 11.1624C45.1264 10.6446 45.1831 10.0117 45.2398 9.32119C45.2964 8.63073 45.4665 7.94027 45.6366 7.24981C45.8067 6.55935 45.9767 5.86889 46.1468 5.29351C46.3169 4.71813 46.487 4.20028 46.7137 3.85505C46.9405 3.45228 47.224 3.27967 47.5074 3.27967C47.6775 3.27967 47.7909 3.39474 47.9042 3.56736C48.0176 3.73997 48.0176 4.14274 48.0176 4.60305C48.0176 5.00582 47.9609 5.52366 47.9042 6.15658C47.8476 6.67443 47.7909 7.19227 47.6775 7.71012C47.5641 8.2855 47.394 8.80335 47.224 9.37873C47.0539 9.95411 46.8838 10.5295 46.7137 11.1049C46.5437 11.6803 46.3736 12.2556 46.2035 12.7735C45.75 13.9818 45.2964 15.2476 44.7862 16.5135ZM40.9312 22.4975C40.8178 22.6701 40.7044 22.8427 40.5911 22.9578C40.4777 23.1304 40.3076 23.2455 40.1942 23.3605C40.0241 23.4756 39.9108 23.5907 39.7407 23.6482C39.5706 23.7058 39.4005 23.7633 39.2305 23.7633C38.8903 23.7633 38.6635 23.7058 38.4368 23.6482C38.21 23.5907 38.0966 23.4756 37.9833 23.3605C37.8699 23.2455 37.8132 23.1304 37.7565 22.9578C37.6998 22.7852 37.6998 22.6701 37.6998 22.4975C37.6998 22.0372 37.7565 21.5193 37.9266 20.8864C38.0966 20.311 38.3234 19.6206 38.6635 18.815C39.0037 18.0095 39.4005 17.3766 39.8541 16.8587C40.3076 16.3409 40.8745 15.9381 41.4981 15.6504C41.4981 15.6504 41.4981 15.7079 41.4981 15.9381C41.4981 16.1107 41.4981 16.3984 41.4981 16.6861C41.4981 16.9738 41.4981 17.319 41.4981 17.7218C41.4981 18.1246 41.4981 18.5849 41.5548 19.1602C41.5548 19.7356 41.5548 20.1959 41.6115 20.4836C41.6115 20.7713 41.6682 21.0015 41.6682 21.1166C41.3847 21.6919 41.158 22.1522 40.9312 22.4975ZM30.8401 20.7713C30.7267 21.4618 30.5567 22.0372 30.3299 22.555C30.1031 23.0729 29.8764 23.4756 29.5362 23.7633C29.2528 24.1085 28.9126 24.2236 28.6292 24.2236C28.289 24.2236 27.9489 24.1661 27.7221 23.9935C27.4386 23.8209 27.2686 23.6482 27.0985 23.3605C26.9284 23.1304 26.815 22.7852 26.7584 22.4399C26.7017 22.0947 26.645 21.7495 26.645 21.3467C26.645 20.5412 26.7017 19.8507 26.8717 19.2753C27.0418 18.6424 27.2119 18.067 27.4953 17.6067C27.7788 17.0889 28.0623 16.6861 28.4024 16.3409C28.7425 15.9956 29.0827 15.823 29.4795 15.823C29.763 15.823 29.9898 15.8806 30.2165 16.0532C30.4433 16.2258 30.5567 16.4559 30.7267 16.6861C30.8401 16.9738 30.9535 17.2615 31.0102 17.6643C31.0669 18.0095 31.1236 18.4122 31.1236 18.8726C31.0102 19.4479 30.9535 20.0809 30.8401 20.7713ZM19.3318 20.7713C19.2184 21.4618 19.0483 22.0372 18.8216 22.555C18.5948 23.0729 18.368 23.4756 18.0279 23.7633C17.7444 24.1085 17.4043 24.2236 17.1208 24.2236C16.7807 24.2236 16.4405 24.1661 16.2137 23.9935C15.9303 23.8209 15.7602 23.6482 15.5901 23.3605C15.4201 23.1304 15.3067 22.7852 15.25 22.4399C15.1933 22.0947 15.1366 21.7495 15.1366 21.3467C15.1366 20.5412 15.1933 19.8507 15.3634 19.2753C15.5335 18.6424 15.7035 18.067 15.987 17.6067C16.2704 17.0889 16.5539 16.6861 16.894 16.3409C17.2342 15.9956 17.5743 15.823 17.9712 15.823C18.2546 15.823 18.4814 15.8806 18.7082 16.0532C18.9349 16.2258 19.105 16.4559 19.2184 16.6861C19.3318 16.9738 19.4452 17.2615 19.5019 17.6643C19.5585 18.0095 19.6152 18.4122 19.6152 18.8726C19.5585 19.4479 19.5018 20.0809 19.3318 20.7713ZM6.74628 20.311C6.68959 21.1166 6.51952 21.9221 6.17937 22.7276C5.78253 23.7633 5.21562 24.2812 4.59201 24.2812C4.25186 24.2812 3.9684 24.1085 3.74164 23.7058C3.40149 23.0729 3.3448 22.2098 3.51487 21.0015C3.57156 20.4261 4.08179 19.3904 4.93216 17.8369C5.72584 16.3984 6.68959 15.6504 7.76673 15.6504L6.74628 20.311ZM6.40614 31.4735C6.34944 31.9338 6.29275 32.3365 6.23606 32.6818C6.17937 33.027 6.12268 33.3147 6.06599 33.6024C5.9526 34.1202 5.78253 34.523 5.72584 34.8107C5.66915 35.0984 5.55576 35.3861 5.38569 35.7313C5.27231 36.0765 5.15892 36.3067 5.04554 36.4793C4.93216 36.6519 4.81878 36.8245 4.6487 36.9396C4.47863 37.1122 4.36524 37.1697 4.19517 37.2273C4.0251 37.2848 3.85502 37.2848 3.62826 37.2848C3.00465 37.2848 2.83458 36.8245 3.17473 35.9614C3.51487 34.9258 3.96841 33.8325 4.6487 32.7968C5.27231 31.7611 5.89591 31.0131 6.57621 30.5528C6.51952 30.6679 6.46283 31.0131 6.40614 31.4735ZM109.641 20.4836C109.301 20.8289 108.848 21.1741 108.337 21.5769C107.827 21.9796 107.26 22.3249 106.693 22.6701C106.126 23.0153 105.503 23.2455 104.879 23.4756C104.256 23.7058 103.689 23.8209 103.122 23.8209C102.952 23.8209 102.782 23.8209 102.611 23.7633C102.441 23.7058 102.328 23.6482 102.158 23.5907C102.045 23.4756 101.874 23.3605 101.761 23.1879C101.648 23.0153 101.478 22.8427 101.364 22.555C102.158 22.3249 102.895 22.0372 103.632 21.6344C104.312 21.2316 104.936 20.7713 105.389 20.311C105.9 19.7932 106.353 19.2178 106.693 18.4698C107.09 17.7793 107.26 17.1464 107.26 16.571C107.26 16.0532 107.147 15.5353 106.977 15.1326C106.807 14.7298 106.523 14.327 106.183 14.0393C105.843 13.7516 105.446 13.5215 105.049 13.3489C104.596 13.1763 104.142 13.1187 103.632 13.1187C103.008 13.1187 102.441 13.2338 101.931 13.464C101.421 13.6941 100.967 13.9818 100.514 14.3846C100.117 14.7873 99.7202 15.1901 99.4367 15.7079C99.1533 16.2258 98.8698 16.7436 98.6431 17.319C98.4163 17.8944 98.2462 18.5273 98.0194 19.2178C97.8494 19.9082 97.736 20.5412 97.736 21.059C97.736 21.3467 97.736 21.5769 97.7927 21.807C97.736 21.807 97.6793 21.807 97.6226 21.807C97.2258 21.807 96.9423 21.7495 96.7155 21.6344C96.4888 21.5193 96.262 21.4042 96.1486 21.2316C96.0353 21.059 95.9219 20.8864 95.8652 20.6562C95.8085 20.4261 95.8085 20.1959 95.8085 20.0233C95.8085 19.7932 95.8085 19.6206 95.8652 19.3904C95.9219 19.2178 95.9219 18.9876 95.9786 18.8726C96.0353 18.6999 96.0919 18.5273 96.1486 18.3547C96.2053 18.1821 96.4321 17.6067 96.8289 16.6286C96.8856 16.5135 97.0557 16.1683 97.2825 15.7079C97.3958 15.4778 97.5092 15.2476 97.5659 14.9599C97.6226 14.7298 97.6793 14.4996 97.6793 14.212C97.6793 13.8667 97.5092 13.579 97.1691 13.3489C96.8289 13.1187 96.4321 13.0036 95.8652 13.0036C95.6384 13.0036 95.4683 13.0036 95.2983 13.0612C95.1282 13.1187 94.9581 13.1763 94.788 13.2913C94.618 13.4064 94.5046 13.464 94.4479 13.579C94.3345 13.6941 94.2778 13.8092 94.2778 13.9818L90.4795 23.3605H90.3661L90.6496 14.0393C90.6496 13.8092 90.5929 13.579 90.4228 13.4064C90.3094 13.2338 90.1393 13.1187 89.8559 13.1187H89.6858H89.5724L87.815 13.4064C87.4748 13.464 87.3048 13.7516 87.1914 14.2695C87.078 14.7873 87.078 15.7079 87.078 16.9163C87.078 17.319 87.078 17.6643 87.078 18.0095C87.078 18.3547 87.078 18.7575 87.1347 19.1602C87.1347 19.563 87.1914 20.0233 87.1914 20.5987C87.1914 21.1166 87.2481 21.7495 87.3048 22.4399V22.8427C87.1914 22.9578 87.078 23.0153 86.9646 23.1304C86.5678 23.4756 86.1143 23.7633 85.7174 23.9935C85.3206 24.2236 84.9237 24.3387 84.5836 24.3387C84.3001 24.3387 84.1301 24.2236 84.0167 23.9935C83.9033 23.7633 83.9033 23.4181 83.9033 23.0153C83.9033 22.6125 83.96 22.0947 84.13 21.5769C84.2434 21.059 84.3568 20.5412 84.4702 19.9658C84.5836 19.4479 84.697 18.815 84.9804 18.0095C85.2072 17.2615 85.3773 16.6286 85.4906 16.1683C85.604 15.7079 85.7174 15.2476 85.8308 14.9024C85.9442 14.4996 86.0009 14.212 86.0009 14.0393C86.0009 13.8092 85.9442 13.579 85.7741 13.464C85.6607 13.2913 85.3773 13.2338 84.9804 13.2338C84.7537 13.2338 84.5269 13.2338 84.3001 13.2913C84.0167 13.3489 83.7899 13.4064 83.5631 13.5215C83.3364 13.6366 83.1096 13.7516 82.9395 13.9243C82.7128 14.0969 82.5994 14.327 82.5427 14.5572C82.486 14.9024 82.2592 15.6504 81.9191 16.7436C81.5222 18.1246 81.2955 18.9876 81.1821 19.3904C81.1254 19.563 80.9553 20.4836 80.6719 22.1522C80.6719 22.2673 80.6152 22.4399 80.6152 22.555C79.7648 23.7058 78.9711 24.5689 78.2908 25.1442C78.0074 25.3744 77.7239 25.547 77.4405 25.7196C77.5539 24.2812 77.6672 23.0729 77.7239 22.1522C77.7806 21.2316 77.9507 20.4261 78.1208 19.6781C78.3475 18.9301 78.4609 18.2972 78.4609 17.7793C78.5176 16.1683 78.5176 15.1901 78.4042 14.9024C78.3475 14.7298 78.2908 14.6147 78.2341 14.4996C78.0641 14.2695 77.7806 14.0969 77.3838 14.0969H76.7602C76.6468 14.0969 76.5334 14.0969 76.42 14.0969C76.3066 14.0969 76.2499 14.0969 76.1933 14.0393C76.1366 14.0393 76.0799 13.9818 76.0232 13.9818C75.9665 13.9818 75.9098 13.9243 75.8531 13.8667C75.7964 13.8092 75.7397 13.7516 75.7397 13.7516C75.7397 13.7516 75.683 13.6941 75.6263 13.579C75.5696 13.5215 75.513 13.464 75.513 13.4064C75.2862 13.1187 74.946 13.0036 74.4358 13.0036C73.3587 13.0036 72.2816 13.5215 71.1477 14.5572C70.354 15.2476 69.7304 16.1107 69.2769 17.0313C68.7667 18.0095 68.3132 19.1602 67.8029 20.6562C67.2927 22.2098 67.2927 23.5907 67.8596 24.7415C67.9163 24.799 67.9163 24.9141 67.973 24.9716C67.7462 25.0292 67.5195 25.0867 67.236 25.0867C65.8754 25.0867 64.4014 24.3387 63.7212 23.9359C64.4014 23.1304 64.9684 22.2673 65.4786 21.3467C66.0455 20.3686 66.5557 19.3329 67.0093 18.3547C67.4061 17.3766 67.7462 16.3984 67.9163 15.5353C68.1431 14.6723 68.2565 13.8667 68.2565 13.1763C68.2565 11.968 68.0864 10.8747 67.7462 9.83904C67.4061 8.80335 66.9526 7.94027 66.4423 7.36489C65.9321 6.73197 65.3085 6.27166 64.6282 5.86889C64.0046 5.52366 63.3243 5.17843 62.7007 5.00582C62.0771 4.77566 61.5102 4.66059 60.9433 4.60305C60.3764 4.54551 59.9795 4.48797 59.6394 4.48797C58.3922 4.3729 57.2583 4.60305 56.1245 5.00582C55.0474 5.40859 54.0836 5.98397 53.2332 6.61689C52.4396 7.30735 51.7593 8.17043 51.3057 9.14858C50.8522 10.1843 50.5687 11.1049 50.5687 11.968C50.5687 12.716 50.7388 13.3489 51.0223 13.8667C51.4191 14.4996 52.4963 15.9956 54.3104 15.9956C54.5371 15.9956 54.7639 15.9956 55.0474 15.9381C55.7277 15.823 58.3355 14.7873 58.5622 13.9243C58.6189 13.8092 58.6189 13.6366 58.5622 13.464C58.5055 13.3489 58.4489 13.2913 58.3355 13.2913C57.3717 13.0612 56.8615 12.716 56.5213 12.4858C56.2379 12.2556 56.0111 11.9104 56.0111 11.5652C56.0111 10.9898 56.3513 10.4144 56.9749 9.95411C57.315 9.66642 57.6552 9.49381 57.9953 9.32119C58.6756 9.09104 59.4693 9.0335 60.2063 9.26365C60.5464 9.37873 60.8299 9.60888 61.1133 9.95411C61.3968 10.2993 61.6236 10.7597 61.8503 11.3926C62.0204 12.0255 62.1338 12.831 62.1338 13.8667C62.1338 14.4421 62.0771 15.075 61.907 15.7079C61.7369 16.3409 61.5102 16.9738 61.2267 17.6067C60.9433 18.2396 60.6031 18.815 60.263 19.4479C59.9228 19.9658 59.5827 20.4261 59.2425 20.8864C58.5622 20.4261 57.8252 20.0809 56.9749 19.7356C56.0678 19.3904 54.9907 19.1602 53.8568 19.1602C53.0632 19.1602 52.3829 19.3329 51.816 19.6206C51.249 19.9082 50.7955 20.311 50.3987 20.7713C50.1719 21.059 50.0018 21.3467 49.8318 21.6919C49.5483 21.9221 49.2648 22.1522 48.9814 22.3824C48.7546 22.555 48.5279 22.7276 48.3011 22.8427C48.0743 23.0153 47.8476 23.1304 47.6208 23.2455C47.394 23.3605 47.1673 23.4756 46.9405 23.5332C46.7137 23.5907 46.5437 23.6482 46.3736 23.6482C46.2035 23.6482 46.0334 23.5907 45.92 23.4756C45.8067 23.3605 45.6933 23.1879 45.6366 23.0153C45.5799 22.8427 45.5232 22.6125 45.4665 22.3824C45.4098 22.1522 45.4098 21.8645 45.4098 21.5769C45.4098 21.3467 45.4098 21.1166 45.4665 20.8864C45.5232 20.6562 45.5232 20.4261 45.5799 20.1959C45.6366 19.9658 45.6933 19.7932 45.6933 19.563C45.75 19.3904 45.8067 19.2178 45.8634 19.1027C46.0901 18.4698 46.6003 17.319 47.394 15.6504C47.9042 14.5572 48.3578 13.4064 48.7546 12.3132C49.1515 11.1624 49.4916 10.0117 49.8884 8.86089C50.2853 7.71012 50.4554 6.44428 50.5121 5.12089C50.5121 4.77566 50.5121 4.43043 50.5121 4.0852C50.5121 3.56736 50.4554 3.04951 50.3987 2.53167C50.342 2.01382 50.1719 1.61106 50.0018 1.20829C49.8318 0.805519 49.5483 0.517827 49.2648 0.287674C48.9814 0.0575205 48.5845 -0.0575562 48.131 -0.0575562C47.5641 -0.0575562 46.9405 0.115059 46.4303 0.517827C45.8634 0.863057 45.3531 1.3809 44.8429 2.07136C44.3327 2.70428 43.8792 3.50982 43.4823 4.3729C43.0855 5.29351 42.7453 6.27166 42.4619 7.30735C42.1784 8.40058 41.9516 9.37873 41.7249 10.2993C41.4981 11.22 41.3847 12.3132 41.328 13.5215C40.6477 13.579 39.9675 13.7516 39.3438 14.0393C38.7202 14.327 38.0966 14.6723 37.5297 15.2476C37.1329 15.5929 36.7927 15.9956 36.5093 16.3984C35.9424 15.7079 35.3188 15.1326 34.6951 14.7298C34.0149 14.2695 33.3346 13.9243 32.5409 13.6366C31.7472 13.3489 30.9535 13.2338 30.1031 13.2338C29.0827 13.2338 28.1756 13.4064 27.3253 13.8092C26.5316 14.212 25.7946 14.7298 25.2277 15.3627C25.0576 15.5929 24.8875 15.823 24.7175 16.0532C24.2639 15.5353 23.7537 15.1326 23.2435 14.7298C22.5632 14.2695 21.8829 13.9243 21.0892 13.6366C20.3522 13.3489 19.5019 13.2338 18.6515 13.2338C17.631 13.2338 16.724 13.4064 15.8736 13.8092C15.0799 14.212 14.3429 14.7298 13.776 15.3627C13.2091 15.9956 12.7556 16.8012 12.4721 17.7218C12.1887 18.6424 12.0186 19.6781 12.0186 20.9439C12.0186 21.6919 12.0753 22.4399 12.302 23.1879C12.3587 23.303 12.3587 23.4756 12.4154 23.5907C11.8485 24.2812 11.3383 24.799 10.8281 25.2018C10.5446 25.4319 10.2612 25.6045 9.97769 25.7772C10.0911 24.3387 10.2045 23.1304 10.2612 22.2098C10.3178 21.2892 10.4879 20.4836 10.658 19.7356C10.8848 18.9876 10.9981 18.3547 10.9981 17.8369C11.0548 16.2258 11.0548 15.2476 10.9414 14.9599C10.8848 14.7873 10.8281 14.6723 10.7714 14.5572C10.6013 14.327 10.3178 14.1544 9.921 14.1544H9.2974C9.18401 14.1544 9.07063 14.1544 8.95725 14.1544C8.84387 14.1544 8.78717 14.1544 8.73048 14.0969C8.67379 14.0969 8.6171 14.0393 8.56041 14.0393C8.50372 14.0393 8.44703 13.9818 8.39034 13.9243C8.33364 13.8667 8.27695 13.8092 8.27695 13.8092C8.27695 13.8092 8.22026 13.7516 8.16357 13.6366C8.10688 13.579 8.05019 13.5215 8.05019 13.464C7.82342 13.1763 7.48327 13.0612 6.97305 13.0612C5.89591 13.0612 4.81878 13.579 3.68495 14.6147C2.89127 15.3052 2.26766 16.1683 1.81413 17.0889C1.30391 18.067 0.850378 19.2178 0.340155 20.7138C-0.170068 22.2673 -0.170068 23.6482 0.396846 24.799C0.736995 25.3168 1.19053 25.8922 1.81413 26.3525C2.43774 26.8128 3.06134 26.9855 3.79833 26.9855C4.76208 26.9855 5.78253 26.4676 6.80298 25.4895L6.51952 27.1581C5.9526 27.6759 5.44238 28.1362 5.04554 28.5965C4.6487 29.0568 4.08179 29.6322 3.45818 30.3802C3.11803 30.7255 2.83458 31.1282 2.55112 31.5885C2.26766 32.0488 2.0409 32.3941 1.92751 32.6242C1.70075 32.8544 1.47398 33.3147 1.13383 33.8901C0.510229 34.9833 0.283463 36.019 0.340155 36.9971C0.396846 37.515 0.510229 37.9753 0.736995 38.3781C0.96376 38.7808 1.19053 39.0685 1.53067 39.2987C1.87082 39.5288 2.21097 39.7014 2.60781 39.8165C3.00465 39.9316 3.45818 39.9891 3.91171 39.9891C4.47863 39.9891 5.04554 39.874 5.49907 39.7014C6.0093 39.5288 6.40614 39.2411 6.74628 38.9534C7.08643 38.6657 7.42658 38.263 7.71004 37.8602C7.9935 37.3999 8.22026 36.9971 8.39034 36.5368C8.56041 36.0765 8.73048 35.6162 8.84387 35.0984C8.95725 34.5805 9.07063 34.1202 9.12732 33.7174C9.18401 33.3147 9.24071 32.9119 9.2974 32.4516C9.2974 32.279 9.35409 31.9913 9.41078 31.6461C9.52416 30.4378 9.63755 29.6322 9.69424 29.1719C9.80762 28.7116 9.97769 28.4239 10.2045 28.2513C10.6013 27.9636 11.2249 27.5608 12.132 26.9855C12.1887 26.9855 12.2454 26.9279 12.302 26.8704C12.6989 26.5827 13.0957 26.1799 13.6059 25.7196C13.8894 26.0073 14.1729 26.2375 14.4563 26.4101C15.0232 26.7553 15.7035 26.9279 16.5539 26.9279C17.1208 26.9279 17.631 26.8128 18.1413 26.6402C18.6515 26.4676 19.105 26.1799 19.5019 25.8347C19.8987 25.4895 20.2955 25.0867 20.6357 24.6264C20.9758 24.1661 21.2593 23.6482 21.4861 23.1304C21.7128 22.6125 21.8829 22.0372 21.9963 21.5193C22.1097 20.9439 22.1663 20.4261 22.1663 19.8507C22.1663 19.1027 22.1097 18.4122 21.9396 17.7793C21.8262 17.2039 21.5994 16.6286 21.316 16.0532L21.4294 15.8806C21.7695 16.1107 22.1663 16.3984 22.6199 16.7436C23.0167 17.0313 23.4136 17.3766 23.8104 17.7218C23.5269 18.5849 23.4136 19.563 23.4136 20.7138C23.4136 21.4618 23.4702 22.2098 23.697 22.9578C23.8671 23.7058 24.1505 24.3387 24.4907 24.9141C24.8875 25.4895 25.3411 25.9498 25.908 26.3525C26.4749 26.6978 27.1552 26.8704 28.0056 26.8704C28.5725 26.8704 29.0827 26.7553 29.5929 26.5827C30.1031 26.4101 30.5567 26.1224 30.9535 25.7772C31.3504 25.4319 31.7472 25.0292 32.0873 24.5689C32.4275 24.1085 32.7109 23.5907 32.9377 23.0729C33.1645 22.555 33.3346 21.9796 33.4479 21.4618C33.5613 20.8864 33.618 20.3686 33.618 19.7932C33.618 19.0452 33.5613 18.3547 33.3912 17.7218C33.2779 17.1464 33.0511 16.571 32.7676 15.9956L32.881 15.823C33.2212 16.0532 33.618 16.3409 34.0715 16.6861C34.5251 17.0313 34.9786 17.4341 35.4888 17.8944C35.3754 18.1821 35.2054 18.4122 35.092 18.6999C34.8085 19.2753 34.5818 19.9082 34.4117 20.4836C34.2416 21.1165 34.1849 21.7495 34.1849 22.3249C34.1849 22.9002 34.2416 23.4181 34.4117 23.9935C34.5818 24.5113 34.7518 25.0292 35.0353 25.4319C35.3188 25.8347 35.7156 26.1799 36.1124 26.4676C36.566 26.6978 37.0762 26.8704 37.6431 26.8704C38.0966 26.8704 38.4935 26.8128 38.8903 26.6402C39.2872 26.4676 39.7407 26.295 40.1375 26.0648C40.5344 25.8347 40.9312 25.547 41.328 25.2018C41.7249 24.8565 42.065 24.5113 42.4052 24.1661C42.6319 24.7415 42.9154 25.2018 43.1989 25.547C43.4823 25.8922 43.8225 26.1799 44.1059 26.3525C44.3894 26.5252 44.6728 26.6402 44.9563 26.6978C45.2398 26.7553 45.4098 26.8128 45.5232 26.8128C45.75 26.8128 45.9767 26.7553 46.2602 26.6978C46.5437 26.6402 46.8271 26.5252 47.1106 26.3525C47.394 26.2375 47.6775 26.0648 47.9609 25.8922C48.2444 25.7196 48.5279 25.547 48.8113 25.3744C48.9814 25.2593 49.1515 25.1442 49.3215 25.0292C49.3782 25.2593 49.4916 25.547 49.605 25.7772C49.8884 26.4101 50.2853 26.9279 50.7955 27.4458C51.3057 27.9061 51.9293 28.3088 52.6096 28.5965C53.2899 28.8842 54.0269 28.9993 54.8773 28.9993C55.9544 28.9418 56.9749 28.6541 57.9386 28.2513C58.8457 27.8485 59.6961 27.3882 60.4897 26.7553C61.2834 27.3307 63.8345 28.8842 66.8392 28.9993C66.8959 28.9993 67.0093 28.9993 67.0659 28.9993C68.6533 28.9993 70.2973 28.4815 73.9256 25.8922L73.7555 27.1005C73.1886 27.6184 72.6784 28.0787 72.2816 28.539C71.8847 28.9993 71.3178 29.5747 70.6942 30.3227C70.354 30.6679 70.0706 31.0707 69.7871 31.531C69.5037 31.9913 69.2769 32.3365 69.1635 32.5667C69.0501 32.7968 68.7667 33.2571 68.4265 33.8325C67.8029 34.9258 67.5762 35.9614 67.6329 36.9396C67.6896 37.4574 67.8029 37.9177 68.0297 38.3205C68.2565 38.7233 68.4832 39.011 68.8234 39.2411C69.1635 39.4713 69.5037 39.6439 69.9005 39.759C70.2974 39.874 70.7509 39.9316 71.2044 39.9316C71.7713 39.9316 72.3382 39.8165 72.7918 39.6439C73.302 39.4713 73.6988 39.1836 74.039 38.8959C74.3791 38.6082 74.7193 38.2054 75.0027 37.8027C75.2862 37.3424 75.513 36.9396 75.683 36.4793C75.8531 36.019 76.0232 35.5587 76.1366 35.0408C76.2499 34.523 76.3633 34.0627 76.42 33.6599C76.4767 33.2571 76.5334 32.8544 76.5901 32.3941C76.5901 32.2214 76.6468 31.9338 76.7035 31.5885C76.8169 30.3802 76.9302 29.5747 76.9869 29.1144C77.1003 28.6541 77.2704 28.3664 77.4972 28.1938C77.894 27.9061 78.5176 27.5033 79.4247 26.9279C79.4814 26.9279 79.538 26.8704 79.5947 26.8128C79.8782 26.5827 80.275 26.2375 80.6719 25.8922C80.7286 25.9498 80.7853 26.0648 80.842 26.1224C81.0687 26.3525 81.2955 26.5827 81.6356 26.6978C81.9758 26.8128 82.3726 26.9279 82.8262 26.9279C83.3364 26.9279 83.9033 26.8128 84.5269 26.6402C85.0938 26.4676 85.7174 26.1799 86.2843 25.8922C86.6812 25.6621 87.078 25.4319 87.4748 25.2018C87.5315 25.3744 87.5315 25.4895 87.5882 25.6045C87.7583 26.0073 87.9851 26.3525 88.2685 26.6402C88.6087 26.9279 89.0055 27.043 89.5724 27.043C89.8559 27.043 90.196 26.8704 90.5362 26.5827C90.8763 26.295 91.2732 25.8922 91.6133 25.4319C91.9535 24.9716 92.3503 24.3962 92.6905 23.8209C93.0306 23.2455 93.3141 22.6701 93.5975 22.0947C93.5975 22.4399 93.7109 22.7852 93.8243 23.1304C93.9944 23.4756 94.1644 23.7633 94.4479 23.9935C94.7313 24.2812 95.0715 24.4538 95.4683 24.6264C95.8652 24.799 96.3187 24.8565 96.8289 24.8565C97.3392 24.8565 97.9061 24.7415 98.473 24.5689C98.5864 24.7415 98.6997 24.9141 98.8131 25.0867C99.2667 25.6621 99.7769 26.0648 100.4 26.4101C101.024 26.7553 101.818 26.8704 102.668 26.8704C103.235 26.8704 103.745 26.8128 104.312 26.6978C104.879 26.5827 105.389 26.4101 105.9 26.1799C106.41 25.9498 106.863 25.7196 107.317 25.4319C107.77 25.1442 108.224 24.8565 108.621 24.5689C109.528 23.8784 110.378 23.1304 111.229 22.2673L109.641 20.4836Z" fill="#F05123"/>
<path d="M83.96 6.32923C84.0167 6.09908 84.1301 5.92646 84.3001 5.69631C84.4702 5.52369 84.697 5.35108 84.9804 5.17846C85.2639 5.06338 85.604 4.94831 86.0576 4.94831C86.341 4.94831 86.6245 5.00585 86.8513 5.06339C87.078 5.12092 87.2481 5.236 87.4182 5.35108C87.5882 5.46615 87.7016 5.58123 87.7583 5.75385C87.8717 5.92646 87.8717 6.15661 87.8717 6.44431C87.8717 6.732 87.815 6.96215 87.7583 7.24984C87.7016 7.48 87.5316 7.71015 87.3615 7.88276C87.1914 8.05538 86.9646 8.22799 86.6812 8.34307C86.3977 8.45815 86.0576 8.51569 85.6607 8.51569C84.9804 8.51569 84.4702 8.34307 84.1868 8.05538C83.9033 7.76769 83.7332 7.36492 83.7332 6.84707C83.8466 6.732 83.8466 6.55938 83.96 6.32923ZM85.7174 9.14861C86.2276 9.14861 86.6245 9.09107 87.0213 8.91845C87.3615 8.74584 87.7016 8.57322 87.9284 8.28553C88.1552 8.05538 88.3252 7.76769 88.4386 7.42246C88.552 7.07723 88.6087 6.78954 88.6087 6.44431C88.6087 6.09908 88.552 5.75385 88.4386 5.46615C88.3252 5.17846 88.1552 5.00585 87.9284 4.83323C87.7016 4.66062 87.4182 4.54554 87.1347 4.488C86.8513 4.43046 86.5111 4.37292 86.171 4.37292C85.604 4.37292 85.1505 4.488 84.8104 4.66062C84.4702 4.83323 84.1301 5.06338 83.9033 5.29354C83.6765 5.52369 83.5065 5.81138 83.4498 6.09908C83.3364 6.38677 83.2797 6.67446 83.2797 6.90461C83.2797 7.59507 83.5065 8.17046 83.9033 8.57322C84.2435 8.97599 84.8671 9.14861 85.7174 9.14861Z" fill="#F05123"/>
<path d="M54.7639 24.2812C54.5938 24.2812 54.4805 24.2812 54.3104 24.2236C54.1403 24.1661 54.0269 24.1086 53.9135 24.051C53.8002 23.9935 53.7435 23.8784 53.6301 23.8209C53.5734 23.7633 53.5734 23.7058 53.5734 23.6482C53.5734 23.5907 53.6868 23.4756 53.9702 23.4181C54.197 23.3606 54.4805 23.303 54.7072 23.303C55.1041 23.303 55.5009 23.4181 55.7844 23.5332C55.8977 23.5907 55.9544 23.6482 56.0678 23.6482C56.1245 23.7058 56.2379 23.7058 56.2946 23.7633C55.7277 24.1086 55.2174 24.2812 54.7639 24.2812ZM57.145 23.4181C56.8615 23.2455 56.6347 23.1304 56.408 23.0153C56.2946 22.9578 56.2379 22.9002 56.1245 22.9002C55.5009 22.555 54.5371 22.4975 53.8569 22.7276C53.1766 22.9578 53.0632 23.3606 53.0632 23.5332C53.0632 23.7058 53.1199 23.9359 53.2332 24.1086C53.3466 24.2236 53.46 24.3962 53.6301 24.5113C53.8002 24.6264 53.9702 24.7415 54.197 24.799C54.4238 24.8565 54.5938 24.9141 54.8206 24.9141C55.5009 24.9141 56.2946 24.5689 57.2016 23.9935C57.315 23.9359 57.315 23.8209 57.315 23.7058C57.2583 23.5907 57.2016 23.4756 57.145 23.4181Z" fill="#F05123"/>
</g>
<path d="M0 54.1514V46.2814H4.89059V47.4732H1.30416V49.6767H4.37343V50.8685H1.30416V54.1514H0Z" fill="#F05123"/>
<path d="M8.76354 54.1513C8.20141 54.1513 7.69923 54.0277 7.25702 53.7803C6.8223 53.5255 6.48127 53.177 6.23393 52.7347C5.98659 52.2925 5.86292 51.7829 5.86292 51.2057C5.86292 50.6286 5.98284 50.1189 6.22268 49.6767C6.47002 49.2345 6.81105 48.8897 7.24577 48.6424C7.68049 48.3875 8.17892 48.2601 8.74106 48.2601C9.3032 48.2601 9.80162 48.3875 10.2363 48.6424C10.6711 48.8897 11.0083 49.2345 11.2482 49.6767C11.4955 50.1189 11.6192 50.6286 11.6192 51.2057C11.6192 51.7829 11.4993 52.2925 11.2594 52.7347C11.0196 53.177 10.6823 53.5255 10.2476 53.7803C9.81287 54.0277 9.31819 54.1513 8.76354 54.1513ZM8.76354 52.9933C9.07085 52.9933 9.34442 52.9184 9.58426 52.7685C9.82411 52.6111 10.0115 52.4012 10.1464 52.1389C10.2813 51.8691 10.3488 51.558 10.3488 51.2057C10.3488 50.8535 10.2776 50.5462 10.1352 50.2838C10.0002 50.014 9.81287 49.8041 9.57302 49.6542C9.33318 49.4968 9.05586 49.4181 8.74106 49.4181C8.42626 49.4181 8.14894 49.4931 7.9091 49.643C7.66925 49.7929 7.48187 50.0028 7.34696 50.2726C7.21204 50.5424 7.14459 50.8535 7.14459 51.2057C7.14459 51.558 7.21204 51.8691 7.34696 52.1389C7.48937 52.4012 7.68049 52.6111 7.92034 52.7685C8.16768 52.9184 8.44875 52.9933 8.76354 52.9933Z" fill="#F05123"/>
<path d="M16.4815 54.0165L16.4141 52.9821V48.3951H17.662V54.0165H16.4815ZM12.5915 51.2732V48.3951H13.8507V51.2732H12.5915ZM13.8507 51.2732C13.8507 51.7154 13.9032 52.0602 14.0081 52.3076C14.113 52.5549 14.2554 52.7273 14.4353 52.8247C14.6227 52.9222 14.8363 52.9709 15.0762 52.9709C15.5034 52.9784 15.8332 52.8397 16.0655 52.5549C16.2979 52.2701 16.4141 51.8616 16.4141 51.3294H16.8863C16.8863 51.9216 16.7963 52.4312 16.6164 52.8585C16.444 53.2782 16.1967 53.6005 15.8744 53.8253C15.5596 54.0427 15.1774 54.1514 14.7276 54.1514C14.2854 54.1514 13.9032 54.0614 13.5809 53.8815C13.2661 53.7017 13.0225 53.4206 12.8501 53.0383C12.6777 52.6561 12.5915 52.1651 12.5915 51.5655V51.2732H13.8507Z" fill="#F05123"/>
<path d="M18.6344 54.1514V48.53H19.8149L19.8936 49.5643V54.1514H18.6344ZM22.4457 54.1514V51.2732H23.7048V54.1514H22.4457ZM22.4457 51.2732C22.4457 50.8235 22.3932 50.4787 22.2883 50.2389C22.1908 49.9916 22.0484 49.8192 21.861 49.7217C21.6812 49.6243 21.4675 49.5756 21.2202 49.5756C20.8005 49.5681 20.4744 49.7067 20.2421 49.9916C20.0097 50.2764 19.8936 50.6849 19.8936 51.217H19.4214C19.4214 50.6249 19.5076 50.119 19.6799 49.6992C19.8523 49.272 20.0997 48.9497 20.422 48.7324C20.7443 48.5075 21.1265 48.3951 21.5687 48.3951C22.0184 48.3951 22.4007 48.485 22.7155 48.6649C23.0378 48.8448 23.2814 49.1259 23.4463 49.5081C23.6187 49.8829 23.7048 50.3738 23.7048 50.9809V51.2732H22.4457Z" fill="#F05123"/>
<path d="M29.0506 54.0164L28.9944 52.9708V46.1465H30.2423V54.0164H29.0506ZM27.218 54.1513C26.7083 54.1513 26.2624 54.0314 25.8801 53.7916C25.5054 53.5442 25.2093 53.1994 24.992 52.7572C24.7821 52.315 24.6772 51.7978 24.6772 51.2057C24.6772 50.6061 24.7821 50.0889 24.992 49.6542C25.2093 49.212 25.5054 48.871 25.8801 48.6311C26.2624 48.3838 26.7083 48.2601 27.218 48.2601C27.6902 48.2601 28.095 48.3838 28.4322 48.6311C28.777 48.871 29.0393 49.212 29.2192 49.6542C29.3991 50.0889 29.4891 50.6061 29.4891 51.2057C29.4891 51.7978 29.3991 52.315 29.2192 52.7572C29.0393 53.1994 28.777 53.5442 28.4322 53.7916C28.095 54.0314 27.6902 54.1513 27.218 54.1513ZM27.5328 53.0046C27.8176 53.0046 28.0687 52.9296 28.2861 52.7797C28.5109 52.6223 28.6833 52.4087 28.8032 52.1389C28.9307 51.869 28.9944 51.558 28.9944 51.2057C28.9944 50.8534 28.9307 50.5424 28.8032 50.2726C28.6833 50.0027 28.5109 49.7929 28.2861 49.643C28.0687 49.4931 27.8139 49.4181 27.5216 49.4181C27.2218 49.4181 26.9557 49.4931 26.7233 49.643C26.491 49.7929 26.3074 50.0027 26.1724 50.2726C26.045 50.5424 25.9776 50.8534 25.9701 51.2057C25.9776 51.558 26.045 51.869 26.1724 52.1389C26.3074 52.4087 26.491 52.6223 26.7233 52.7797C26.9632 52.9296 27.233 53.0046 27.5328 53.0046Z" fill="#F05123"/>
<path d="M34.9585 54.0164L34.9023 52.9596V51.127C34.9023 50.7448 34.8611 50.4262 34.7786 50.1714C34.7037 49.9091 34.5762 49.7104 34.3964 49.5755C34.224 49.4331 33.9916 49.3619 33.6993 49.3619C33.4295 49.3619 33.1934 49.4181 32.991 49.5306C32.7886 49.643 32.6163 49.8191 32.4738 50.059L31.3721 49.6542C31.492 49.4069 31.6494 49.1783 31.8443 48.9684C32.0466 48.7511 32.2977 48.5787 32.5975 48.4513C32.9048 48.3238 33.2721 48.2601 33.6993 48.2601C34.2465 48.2601 34.7037 48.3688 35.0709 48.5862C35.4382 48.796 35.708 49.0996 35.8804 49.4968C36.0603 49.8941 36.1502 50.3738 36.1502 50.9359L36.1165 54.0164H34.9585ZM33.3395 54.1513C32.665 54.1513 32.1403 54.0014 31.7656 53.7016C31.3983 53.4018 31.2147 52.9783 31.2147 52.4312C31.2147 51.8466 31.4095 51.4006 31.7993 51.0933C32.1965 50.786 32.7474 50.6324 33.452 50.6324H34.9585V51.5992H33.8567C33.3545 51.5992 33.0023 51.6704 32.7999 51.8128C32.5975 51.9478 32.4963 52.1426 32.4963 52.3975C32.4963 52.6148 32.5825 52.7872 32.7549 52.9146C32.9348 53.0346 33.1821 53.0945 33.4969 53.0945C33.7818 53.0945 34.0291 53.0308 34.239 52.9034C34.4488 52.776 34.61 52.6073 34.7224 52.3975C34.8423 52.1876 34.9023 51.9515 34.9023 51.6892H35.2733C35.2733 52.4537 35.1196 53.057 34.8123 53.4993C34.505 53.934 34.0141 54.1513 33.3395 54.1513Z" fill="#F05123"/>
<path d="M39.877 54.1514C39.2849 54.1514 38.8315 54.0052 38.5167 53.7129C38.2094 53.4131 38.0557 52.9859 38.0557 52.4312V46.6412H39.3037V52.1952C39.3037 52.4575 39.3636 52.6561 39.4835 52.791C39.611 52.9259 39.7946 52.9934 40.0344 52.9934C40.1094 52.9934 40.1918 52.9784 40.2818 52.9484C40.3717 52.9184 40.4729 52.8622 40.5853 52.7798L41.0463 53.7354C40.8514 53.8703 40.6565 53.9715 40.4617 54.039C40.2668 54.1139 40.0719 54.1514 39.877 54.1514ZM37.1226 49.4744V48.3951H40.8214V49.4744H37.1226Z" fill="#F05123"/>
<path d="M42.131 54.1514V48.53H43.379V54.1514H42.131ZM42.7606 47.4619C42.5582 47.4619 42.3821 47.3907 42.2322 47.2483C42.0898 47.0984 42.0186 46.9223 42.0186 46.7199C42.0186 46.5175 42.0898 46.3452 42.2322 46.2027C42.3821 46.0603 42.5582 45.9891 42.7606 45.9891C42.963 45.9891 43.1354 46.0603 43.2778 46.2027C43.4277 46.3452 43.5026 46.5175 43.5026 46.7199C43.5026 46.9223 43.4277 47.0984 43.2778 47.2483C43.1354 47.3907 42.963 47.4619 42.7606 47.4619Z" fill="#F05123"/>
<path d="M47.3756 54.1513C46.8134 54.1513 46.3113 54.0277 45.869 53.7803C45.4343 53.5255 45.0933 53.177 44.846 52.7347C44.5986 52.2925 44.4749 51.7829 44.4749 51.2057C44.4749 50.6286 44.5949 50.1189 44.8347 49.6767C45.0821 49.2345 45.4231 48.8897 45.8578 48.6424C46.2925 48.3875 46.791 48.2601 47.3531 48.2601C47.9152 48.2601 48.4137 48.3875 48.8484 48.6424C49.2831 48.8897 49.6204 49.2345 49.8602 49.6767C50.1076 50.1189 50.2312 50.6286 50.2312 51.2057C50.2312 51.7829 50.1113 52.2925 49.8715 52.7347C49.6316 53.177 49.2943 53.5255 48.8596 53.7803C48.4249 54.0277 47.9302 54.1513 47.3756 54.1513ZM47.3756 52.9933C47.6829 52.9933 47.9564 52.9184 48.1963 52.7685C48.4361 52.6111 48.6235 52.4012 48.7584 52.1389C48.8933 51.8691 48.9608 51.558 48.9608 51.2057C48.9608 50.8535 48.8896 50.5462 48.7472 50.2838C48.6123 50.014 48.4249 49.8041 48.1851 49.6542C47.9452 49.4968 47.6679 49.4181 47.3531 49.4181C47.0383 49.4181 46.761 49.4931 46.5211 49.643C46.2813 49.7929 46.0939 50.0028 45.959 50.2726C45.8241 50.5424 45.7566 50.8535 45.7566 51.2057C45.7566 51.558 45.8241 51.8691 45.959 52.1389C46.1014 52.4012 46.2925 52.6111 46.5324 52.7685C46.7797 52.9184 47.0608 52.9933 47.3756 52.9933Z" fill="#F05123"/>
<path d="M51.2036 54.1514V48.53H52.3841L52.4628 49.5643V54.1514H51.2036ZM55.0149 54.1514V51.2732H56.2741V54.1514H55.0149ZM55.0149 51.2732C55.0149 50.8235 54.9624 50.4787 54.8575 50.2389C54.76 49.9916 54.6176 49.8192 54.4303 49.7217C54.2504 49.6243 54.0368 49.5756 53.7894 49.5756C53.3697 49.5681 53.0436 49.7067 52.8113 49.9916C52.5789 50.2764 52.4628 50.6849 52.4628 51.217H51.9906C51.9906 50.6249 52.0768 50.119 52.2492 49.6992C52.4216 49.272 52.6689 48.9497 52.9912 48.7324C53.3135 48.5075 53.6957 48.3951 54.1379 48.3951C54.5877 48.3951 54.9699 48.485 55.2847 48.6649C55.607 48.8448 55.8506 49.1259 56.0155 49.5081C56.1879 49.8829 56.2741 50.3738 56.2741 50.9809V51.2732H55.0149Z" fill="#F05123"/>
<path d="M67.9297 54.0052L64.8604 46.1353H66.1646L69.3126 54.0052H67.9297ZM61.645 54.0052L64.7817 46.1353H66.0972L63.0279 54.0052H61.645ZM63.1178 52.0715V50.9135H67.8285V52.0715H63.1178Z" fill="#F05123"/>
<path d="M73.2305 54.0052C72.6534 54.0052 72.1437 53.8815 71.7015 53.6342C71.2593 53.3794 70.9108 53.0308 70.6559 52.5886C70.4086 52.1464 70.2849 51.6367 70.2849 51.0596C70.2849 50.4825 70.4086 49.9728 70.6559 49.5306C70.9108 49.0884 71.2555 48.7436 71.6903 48.4963C72.1325 48.2414 72.6384 48.114 73.208 48.114C73.7627 48.114 74.2648 48.2489 74.7146 48.5188C75.1643 48.7811 75.4978 49.1596 75.7152 49.6543L74.5459 50.104C74.426 49.8566 74.2424 49.658 73.995 49.5081C73.7477 49.3582 73.4666 49.2833 73.1518 49.2833C72.8445 49.2833 72.5709 49.362 72.3311 49.5194C72.0912 49.6693 71.9039 49.8791 71.769 50.149C71.634 50.4113 71.5666 50.7148 71.5666 51.0596C71.5666 51.4044 71.634 51.7117 71.769 51.9815C71.9114 52.2438 72.1025 52.4537 72.3423 52.6111C72.5897 52.761 72.867 52.836 73.1743 52.836C73.4891 52.836 73.7702 52.7573 74.0175 52.5999C74.2648 52.435 74.4485 52.2139 74.5684 51.9365L75.7376 52.3863C75.5203 52.8959 75.1867 53.2932 74.737 53.578C74.2948 53.8628 73.7926 54.0052 73.2305 54.0052Z" fill="#F05123"/>
<path d="M79.6556 54.0052C79.0784 54.0052 78.5688 53.8815 78.1265 53.6342C77.6843 53.3794 77.3358 53.0308 77.081 52.5886C76.8336 52.1464 76.71 51.6367 76.71 51.0596C76.71 50.4825 76.8336 49.9728 77.081 49.5306C77.3358 49.0884 77.6806 48.7436 78.1153 48.4963C78.5575 48.2414 79.0634 48.114 79.6331 48.114C80.1877 48.114 80.6899 48.2489 81.1396 48.5188C81.5893 48.7811 81.9229 49.1596 82.1402 49.6543L80.971 50.104C80.851 49.8566 80.6674 49.658 80.4201 49.5081C80.1727 49.3582 79.8917 49.2833 79.5769 49.2833C79.2696 49.2833 78.996 49.362 78.7561 49.5194C78.5163 49.6693 78.3289 49.8791 78.194 50.149C78.0591 50.4113 77.9916 50.7148 77.9916 51.0596C77.9916 51.4044 78.0591 51.7117 78.194 51.9815C78.3364 52.2438 78.5275 52.4537 78.7674 52.6111C79.0147 52.761 79.292 52.836 79.5993 52.836C79.9141 52.836 80.1952 52.7573 80.4426 52.5999C80.6899 52.435 80.8735 52.2139 80.9934 51.9365L82.1627 52.3863C81.9453 52.8959 81.6118 53.2932 81.1621 53.578C80.7199 53.8628 80.2177 54.0052 79.6556 54.0052Z" fill="#F05123"/>
<path d="M86.0357 54.0052C85.4735 54.0052 84.9714 53.8815 84.5291 53.6342C84.0944 53.3794 83.7534 53.0308 83.5061 52.5886C83.2587 52.1464 83.135 51.6367 83.135 51.0596C83.135 50.4825 83.255 49.9728 83.4948 49.5306C83.7421 49.0884 84.0832 48.7436 84.5179 48.4963C84.9526 48.2414 85.451 48.114 86.0132 48.114C86.5753 48.114 87.0737 48.2414 87.5085 48.4963C87.9432 48.7436 88.2805 49.0884 88.5203 49.5306C88.7677 49.9728 88.8913 50.4825 88.8913 51.0596C88.8913 51.6367 88.7714 52.1464 88.5316 52.5886C88.2917 53.0308 87.9544 53.3794 87.5197 53.6342C87.085 53.8815 86.5903 54.0052 86.0357 54.0052ZM86.0357 52.8472C86.343 52.8472 86.6165 52.7723 86.8564 52.6224C87.0962 52.465 87.2836 52.2551 87.4185 51.9928C87.5534 51.7229 87.6209 51.4119 87.6209 51.0596C87.6209 50.7073 87.5497 50.4 87.4073 50.1377C87.2724 49.8679 87.085 49.658 86.8451 49.5081C86.6053 49.3507 86.328 49.272 86.0132 49.272C85.6984 49.272 85.4211 49.347 85.1812 49.4969C84.9414 49.6468 84.754 49.8566 84.6191 50.1265C84.4842 50.3963 84.4167 50.7073 84.4167 51.0596C84.4167 51.4119 84.4842 51.7229 84.6191 51.9928C84.7615 52.2551 84.9526 52.465 85.1925 52.6224C85.4398 52.7723 85.7209 52.8472 86.0357 52.8472Z" fill="#F05123"/>
<path d="M93.7536 53.8703L93.6862 52.836V48.249H94.9341V53.8703H93.7536ZM89.8636 51.1271V48.249H91.1228V51.1271H89.8636ZM91.1228 51.1271C91.1228 51.5693 91.1753 51.9141 91.2802 52.1614C91.3852 52.4088 91.5276 52.5812 91.7075 52.6786C91.8948 52.776 92.1085 52.8248 92.3483 52.8248C92.7755 52.8323 93.1053 52.6936 93.3377 52.4088C93.57 52.124 93.6862 51.7155 93.6862 51.1833H94.1584C94.1584 51.7754 94.0684 52.2851 93.8886 52.7123C93.7162 53.1321 93.4688 53.4544 93.1465 53.6792C92.8317 53.8966 92.4495 54.0052 91.9998 54.0052C91.5576 54.0052 91.1753 53.9153 90.853 53.7354C90.5382 53.5555 90.2946 53.2745 90.1222 52.8922C89.9498 52.51 89.8636 52.019 89.8636 51.4194V51.1271H91.1228Z" fill="#F05123"/>
<path d="M95.9065 54.0052V48.3839H97.0869L97.1656 49.4182V54.0052H95.9065ZM99.7178 54.0052V51.1271H100.977V54.0052H99.7178ZM99.7178 51.1271C99.7178 50.6774 99.6653 50.3326 99.5604 50.0928C99.4629 49.8454 99.3205 49.673 99.1331 49.5756C98.9532 49.4782 98.7396 49.4295 98.4923 49.4295C98.0726 49.422 97.7465 49.5606 97.5142 49.8454C97.2818 50.1302 97.1656 50.5387 97.1656 51.0709H96.6935C96.6935 50.4788 96.7796 49.9729 96.952 49.5531C97.1244 49.1259 97.3718 48.8036 97.6941 48.5862C98.0163 48.3614 98.3986 48.249 98.8408 48.249C99.2905 48.249 99.6728 48.3389 99.9876 48.5188C100.31 48.6987 100.553 48.9797 100.718 49.362C100.891 49.7368 100.977 50.2277 100.977 50.8348V51.1271H99.7178Z" fill="#F05123"/>
<path d="M104.704 54.0053C104.112 54.0053 103.658 53.8591 103.343 53.5668C103.036 53.267 102.882 52.8398 102.882 52.2851V46.4951H104.13V52.049C104.13 52.3114 104.19 52.51 104.31 52.6449C104.438 52.7798 104.621 52.8473 104.861 52.8473C104.936 52.8473 105.019 52.8323 105.108 52.8023C105.198 52.7723 105.3 52.7161 105.412 52.6337L105.873 53.5893C105.678 53.7242 105.483 53.8254 105.288 53.8928C105.093 53.9678 104.899 54.0053 104.704 54.0053ZM101.949 49.3283V48.249H105.648V49.3283H101.949Z" fill="#F05123"/>
<path d="M109.206 54.0052C108.832 54.0052 108.487 53.949 108.172 53.8366C107.857 53.7241 107.587 53.5667 107.362 53.3644C107.138 53.1545 106.965 52.9109 106.845 52.6336L107.936 52.1502C108.048 52.36 108.213 52.5362 108.431 52.6786C108.655 52.821 108.903 52.8922 109.173 52.8922C109.465 52.8922 109.697 52.8435 109.87 52.746C110.049 52.6411 110.139 52.4987 110.139 52.3188C110.139 52.1464 110.072 52.0152 109.937 51.9253C109.802 51.8279 109.611 51.7492 109.364 51.6892L108.835 51.5431C108.303 51.4081 107.887 51.1945 107.587 50.9022C107.288 50.6024 107.138 50.2614 107.138 49.8791C107.138 49.317 107.317 48.8823 107.677 48.575C108.045 48.2677 108.569 48.114 109.251 48.114C109.596 48.114 109.911 48.1665 110.196 48.2714C110.488 48.3688 110.739 48.5113 110.949 48.6986C111.159 48.8785 111.305 49.0921 111.387 49.3395L110.342 49.8117C110.267 49.6243 110.124 49.4819 109.915 49.3844C109.705 49.2795 109.472 49.227 109.218 49.227C108.963 49.227 108.764 49.2833 108.622 49.3957C108.479 49.5006 108.408 49.6505 108.408 49.8454C108.408 49.9578 108.472 50.0628 108.599 50.1602C108.727 50.2501 108.91 50.3251 109.15 50.385L109.813 50.5424C110.181 50.6324 110.48 50.7748 110.713 50.9697C110.945 51.1571 111.118 51.3707 111.23 51.6105C111.342 51.8429 111.399 52.079 111.399 52.3188C111.399 52.6561 111.301 52.9521 111.106 53.207C110.919 53.4618 110.66 53.6604 110.331 53.8028C110.001 53.9378 109.626 54.0052 109.206 54.0052Z" fill="#F05123"/>
<defs>
<clipPath id="clip0_118079_22184">
<rect width="111.399" height="39.9891" fill="white"/>
</clipPath>
</defs>
</svg>
