<svg width="142" height="35" viewBox="0 0 142 35" fill="none" xmlns="http://www.w3.org/2000/svg">
<path d="M14 14C6.27923 14 0 7.71869 0 0H6.78813C6.78813 3.97774 10.0243 7.21187 14 7.21187C17.9777 7.21187 21.2119 3.97567 21.2119 0H28C28 7.72077 21.7208 14 14 14Z" fill="#F05123"/>
<path d="M28 17.394H0V24.1822H28V17.394Z" fill="#F05123"/>
<path d="M28 27.5762H0V34.3643H28V27.5762Z" fill="#F05123"/>
<path d="M55.0245 15.6785C53.2135 15.6785 51.7673 15.1517 50.6847 14.0996C49.602 13.0475 49.062 11.6822 49.062 10.0039C49.062 8.34012 49.61 6.97089 50.7072 5.89621C51.8044 4.82152 53.2427 4.28418 55.0245 4.28418C56.821 4.28418 58.2672 4.82152 59.3631 5.89621C60.4603 6.97089 61.0083 8.34012 61.0083 10.0039C61.0083 11.6822 60.4669 13.0475 59.3856 14.0996C58.3043 15.1517 56.8502 15.6785 55.0245 15.6785ZM55.0245 12.8525C55.9373 12.8525 56.6259 12.5765 57.089 12.0245C57.552 11.4726 57.7842 10.7986 57.7842 10.0039C57.7842 9.2383 57.548 8.56833 57.077 7.99384C56.606 7.41934 55.9214 7.13276 55.0232 7.13276C54.1396 7.13276 53.4629 7.41934 52.9919 7.99384C52.5209 8.56833 52.2847 9.2383 52.2847 10.0039C52.2847 10.7694 52.5169 11.4354 52.98 12.002C53.4457 12.5685 54.1263 12.8525 55.0245 12.8525Z" fill="#F05123"/>
<path d="M68.3216 15.6785C66.5106 15.6785 65.0644 15.1517 63.9818 14.0996C62.8991 13.0475 62.3591 11.6822 62.3591 10.0039C62.3591 8.34012 62.9071 6.97089 64.0043 5.89621C65.1016 4.82152 66.5398 4.28418 68.3216 4.28418C70.1181 4.28418 71.5643 4.82152 72.6602 5.89621C73.7574 6.97089 74.3054 8.34012 74.3054 10.0039C74.3054 11.6822 73.7641 13.0475 72.6827 14.0996C71.6014 15.1517 70.1473 15.6785 68.3216 15.6785ZM68.3216 12.8525C69.2345 12.8525 69.9231 12.5765 70.3861 12.0245C70.8491 11.4726 71.0813 10.7986 71.0813 10.0039C71.0813 9.2383 70.8452 8.56833 70.3742 7.99384C69.9032 7.41934 69.2185 7.13276 68.3203 7.13276C67.4367 7.13276 66.76 7.41934 66.289 7.99384C65.818 8.56833 65.5819 9.2383 65.5819 10.0039C65.5819 10.7694 65.814 11.4354 66.2771 12.002C66.7428 12.5685 67.4234 12.8525 68.3216 12.8525Z" fill="#F05123"/>
<path d="M84.5435 0H87.745V15.4357H84.8964L84.6974 14.0439C83.8734 15.104 82.6661 15.6334 81.0753 15.6334C79.4699 15.6334 78.171 15.1146 77.1772 14.0771C76.1835 13.0395 75.6873 11.6743 75.6873 9.98131C75.6873 8.24456 76.1874 6.86472 77.1892 5.84045C78.1895 4.81751 79.5004 4.30538 81.1204 4.30538C82.5626 4.30538 83.7036 4.82016 84.5435 5.85107V0ZM81.5622 7.17651C80.7515 7.17651 80.1041 7.43789 79.6185 7.96063C79.1329 8.48338 78.8901 9.15738 78.8901 9.98131C78.8901 10.7906 79.1289 11.4607 79.6079 11.9914C80.0855 12.5208 80.7369 12.7861 81.5622 12.7861C82.3715 12.7861 83.0628 12.5579 83.6373 12.1015C84.2118 11.6451 84.4983 10.9392 84.4983 9.98131C84.4983 9.1136 84.2038 8.42766 83.6147 7.92746C83.027 7.42727 82.3423 7.17651 81.5622 7.17651Z" fill="#F05123"/>
<path d="M98.3193 5.63101L96.7507 7.61851C95.9998 7.08913 95.1387 6.82378 94.1675 6.82378C93.6673 6.82378 93.2799 6.90471 93.0079 7.06657C92.7346 7.22844 92.5992 7.45001 92.5992 7.72863C92.5992 8.33232 93.1366 8.64809 94.2113 8.6786C94.6969 8.6932 95.1347 8.72637 95.5248 8.77811C95.9149 8.82986 96.3341 8.93332 96.7839 9.08722C97.2323 9.24245 97.6038 9.43749 97.9001 9.67233C98.1946 9.90717 98.444 10.2428 98.651 10.6767C98.8562 11.1119 98.9597 11.6147 98.9597 12.1892C98.9747 13.1909 98.5847 14.052 97.7895 14.7724C96.9948 15.4942 95.7954 15.8551 94.19 15.8551C92.2609 15.8551 90.5534 15.2368 89.0674 14.0003L90.4366 11.7474C91.5113 12.631 92.777 13.0874 94.2352 13.1166C94.7062 13.1312 95.1002 13.0503 95.416 12.8738C95.7318 12.6974 95.883 12.4692 95.8684 12.1892C95.8684 11.5855 95.2501 11.2618 94.0136 11.2167C93.4683 11.1875 92.9429 11.1106 92.4347 10.9845C91.9266 10.8598 91.441 10.6687 90.9779 10.41C90.5149 10.1526 90.1421 9.79174 89.8621 9.32737C89.5822 8.86432 89.4429 8.32966 89.4429 7.72598C89.4429 6.56373 89.8993 5.68673 90.8121 5.09897C91.7249 4.51121 92.8367 4.21533 94.1463 4.21533C95.8379 4.21799 97.2284 4.689 98.3193 5.63101Z" fill="#F05123"/>
<path d="M100.582 1.8998L103.762 1.54688V4.59447H106.523V7.24403H103.74V11.3517C103.74 12.3229 104.152 12.8098 104.977 12.8098C105.507 12.8098 105.948 12.7209 106.303 12.5445L107.031 15.194C106.309 15.474 105.544 15.6359 104.735 15.6796C103.454 15.738 102.442 15.4329 101.697 14.7628C100.954 14.0928 100.583 12.9558 100.583 11.3504V7.24271V4.59314L100.582 1.8998Z" fill="#F05123"/>
<path d="M116.31 5.78631L116.42 4.5272H119.401V15.4359H116.53L116.354 14.0667C116.014 14.5974 115.526 14.9941 114.885 15.2594C114.244 15.5248 113.615 15.6641 112.997 15.6787C111.333 15.6933 109.978 15.1891 108.934 14.1662C107.889 13.1432 107.366 11.7475 107.366 9.98152C107.366 8.21431 107.908 6.81722 108.988 5.78631C110.071 4.75674 111.437 4.25522 113.085 4.28441C113.791 4.28441 114.435 4.41708 115.016 4.68244C115.6 4.94647 116.03 5.31531 116.31 5.78631ZM113.417 7.0892C112.594 7.0892 111.907 7.35057 111.363 7.87332C110.818 8.39607 110.546 9.09922 110.546 9.98285C110.546 10.8665 110.818 11.5657 111.363 12.0805C111.907 12.5966 112.592 12.854 113.417 12.854C114.271 12.854 114.967 12.5754 115.505 12.0155C116.042 11.4556 116.311 10.8161 116.311 10.0943C116.311 9.25445 116.057 8.54466 115.55 7.96354C115.04 7.37976 114.33 7.0892 113.417 7.0892Z" fill="#F05123"/>
<path d="M129.008 11.925L131.018 14.0014C129.884 15.1199 128.464 15.6799 126.756 15.6799C125.049 15.6799 123.628 15.2022 122.495 14.2442C121.361 13.2877 120.794 11.8746 120.794 10.0039C120.794 8.23663 121.369 6.8422 122.516 5.81926C123.665 4.79631 125.071 4.28418 126.734 4.28418C128.412 4.28418 129.73 4.78437 130.686 5.78609L128.921 7.79615C128.361 7.36893 127.676 7.15532 126.867 7.15532C126.042 7.15532 125.357 7.40873 124.813 7.91688C124.267 8.42504 123.996 9.12022 123.996 10.0039C123.996 10.8424 124.267 11.5097 124.813 12.002C125.357 12.4955 126.021 12.7423 126.801 12.7423C127.183 12.7423 127.584 12.6693 128.004 12.5221C128.423 12.3735 128.759 12.1758 129.008 11.925Z" fill="#F05123"/>
<path d="M139.263 9.99293C140.84 8.70195 141.848 6.7423 141.848 4.54916H138.668C138.668 6.40132 137.353 7.95232 135.61 8.31983V0.000976562H132.43V15.4367H135.61V11.666C137.355 12.0335 138.668 13.5845 138.668 15.4367H141.848C141.848 13.2435 140.84 11.2826 139.263 9.99293Z" fill="#F05123"/>
<path d="M45.3405 13.6247C46.857 12.8446 47.6371 11.5709 47.6809 9.80362C47.7194 8.80851 47.4341 7.8811 46.8251 7.02135H47.6836V4.19531H41.8418V4.19798C40.2311 4.20859 38.8565 4.69286 37.7221 5.65344C36.5732 6.62464 36 7.99387 36 9.76116C36 11.4395 36.5334 12.7756 37.6014 13.7693C38.6681 14.7631 40.0997 15.2593 41.8962 15.2593C43.6621 15.2593 44.5457 15.8842 44.5457 17.1367C44.5457 17.7842 44.2844 18.2817 43.7616 18.628C43.2389 18.9743 42.602 19.1467 41.8511 19.1467C40.1289 19.1467 39.2161 18.4104 39.1126 16.939H36.1539C36.1247 18.5285 36.5984 19.761 37.5775 20.638C38.5567 21.5137 39.9803 21.9515 41.8511 21.9515C43.4697 21.9515 44.8615 21.5323 46.0251 20.6924C47.1873 19.8539 47.7698 18.6678 47.7698 17.1367C47.7685 15.5167 46.9591 14.3465 45.3405 13.6247ZM43.8386 11.6823C43.3079 12.1387 42.6604 12.3669 41.8948 12.3669C41.0855 12.3669 40.4115 12.1281 39.8742 11.6492C39.3368 11.1715 39.0688 10.5413 39.0688 9.76116C39.0688 8.90672 39.3302 8.23667 39.8529 7.75107C40.3757 7.26547 41.0563 7.02266 41.8962 7.02266C42.6763 7.02266 43.3278 7.28803 43.8505 7.81741C44.3733 8.34679 44.6346 8.99561 44.6346 9.76116C44.6333 10.5851 44.368 11.2259 43.8386 11.6823Z" fill="#F05123"/>
<path d="M139.886 34.0713C139.507 34.0713 139.171 34.0177 138.878 33.9104C138.585 33.796 138.338 33.6529 138.138 33.4813C137.937 33.3096 137.773 33.1379 137.644 32.9663L138.459 32.2582C138.595 32.4799 138.781 32.6766 139.017 32.8482C139.261 33.0199 139.554 33.1057 139.897 33.1057C140.183 33.1057 140.409 33.0449 140.573 32.9234C140.745 32.8018 140.831 32.6516 140.831 32.4727C140.831 32.3154 140.777 32.1938 140.67 32.108C140.562 32.015 140.423 31.9363 140.251 31.8719C140.08 31.8075 139.89 31.7503 139.683 31.7003C139.482 31.6502 139.278 31.5894 139.071 31.5179C138.864 31.4392 138.67 31.3426 138.492 31.2282C138.32 31.1137 138.18 30.9671 138.073 30.7883C137.966 30.6095 137.912 30.3877 137.912 30.1231C137.912 29.6582 138.091 29.2862 138.449 29.0073C138.806 28.7283 139.275 28.5889 139.854 28.5889C140.269 28.5889 140.648 28.6711 140.991 28.8356C141.335 29.0001 141.603 29.2469 141.796 29.5759L141.056 30.1446C140.913 29.93 140.734 29.769 140.519 29.6618C140.305 29.5545 140.072 29.5008 139.822 29.5008C139.593 29.5008 139.4 29.5473 139.243 29.6403C139.092 29.7333 139.017 29.8549 139.017 30.0051C139.017 30.1195 139.053 30.2125 139.125 30.284C139.196 30.3556 139.307 30.4199 139.457 30.4772C139.607 30.5344 139.797 30.5916 140.026 30.6488C140.24 30.6989 140.462 30.7597 140.691 30.8312C140.92 30.9027 141.131 30.9993 141.324 31.1209C141.524 31.2353 141.685 31.3927 141.807 31.593C141.936 31.7861 142 32.0364 142 32.344C142 32.6873 141.911 32.9913 141.732 33.2559C141.56 33.5134 141.313 33.7137 140.991 33.8568C140.677 33.9998 140.308 34.0713 139.886 34.0713Z" fill="#192B42"/>
<path d="M135.924 34.0715C135.659 34.0715 135.409 34.0214 135.173 33.9213C134.944 33.814 134.761 33.6459 134.625 33.417C134.49 33.181 134.422 32.8734 134.422 32.4943V27.3981L135.623 26.7329V32.1617C135.623 32.4622 135.666 32.6946 135.752 32.8591C135.845 33.0165 136.009 33.0952 136.246 33.0952C136.317 33.0952 136.399 33.088 136.492 33.0737C136.592 33.0522 136.696 33.0272 136.803 32.9986V33.9213C136.66 33.9714 136.514 34.0071 136.364 34.0286C136.22 34.0572 136.074 34.0715 135.924 34.0715ZM133.413 29.6083V28.6856H136.803V29.6083H133.413Z" fill="#192B42"/>
<path d="M127.796 33.9748V28.6854H128.987V29.8549L128.772 29.9085C128.865 29.601 129.001 29.3506 129.18 29.1575C129.359 28.9644 129.566 28.8213 129.802 28.7283C130.045 28.6354 130.299 28.5889 130.564 28.5889C131.157 28.5889 131.619 28.7605 131.948 29.1039C132.284 29.44 132.452 29.9228 132.452 30.5523V33.9748H131.261V30.9921C131.261 30.5201 131.175 30.1732 131.004 29.9514C130.832 29.7297 130.567 29.6188 130.21 29.6188C129.945 29.6188 129.72 29.6832 129.534 29.812C129.355 29.9336 129.219 30.1267 129.126 30.3913C129.033 30.656 128.987 30.9921 128.987 31.3998V33.9748H127.796Z" fill="#192B42"/>
<path d="M123.423 34.0715C123.008 34.0715 122.657 33.9892 122.371 33.8247C122.092 33.6602 121.881 33.4242 121.738 33.1166C121.595 32.809 121.524 32.4371 121.524 32.0008V28.6855H122.715V31.6789C122.715 31.9579 122.747 32.2011 122.811 32.4085C122.883 32.6088 122.994 32.7625 123.144 32.8698C123.301 32.9771 123.512 33.0308 123.777 33.0308C124.084 33.0308 124.324 32.9521 124.496 32.7947C124.674 32.6302 124.8 32.3942 124.871 32.0866C124.95 31.7719 124.989 31.3964 124.989 30.9601V28.6855H126.18V33.9749H124.989V32.8376L125.193 32.9127C125.028 33.3133 124.789 33.6065 124.474 33.7925C124.167 33.9785 123.816 34.0715 123.423 34.0715Z" fill="#192B42"/>
<path d="M117.594 34.0713C117.094 34.0713 116.643 33.9533 116.243 33.7173C115.842 33.4813 115.527 33.1558 115.298 32.741C115.077 32.3261 114.966 31.854 114.966 31.3247C114.966 30.7954 115.077 30.3234 115.298 29.9085C115.527 29.4937 115.838 29.1718 116.232 28.9429C116.632 28.7069 117.087 28.5889 117.594 28.5889C118.109 28.5889 118.56 28.7069 118.946 28.9429C119.34 29.1718 119.651 29.4937 119.88 29.9085C120.109 30.3234 120.223 30.7954 120.223 31.3247C120.223 31.854 120.109 32.3261 119.88 32.741C119.658 33.1558 119.347 33.4813 118.946 33.7173C118.553 33.9533 118.102 34.0713 117.594 34.0713ZM117.605 33.0199C117.898 33.0199 118.152 32.952 118.367 32.8161C118.581 32.6802 118.746 32.4835 118.86 32.226C118.975 31.9685 119.032 31.6681 119.032 31.3247C119.032 30.9743 118.975 30.6739 118.86 30.4235C118.746 30.166 118.581 29.9693 118.367 29.8334C118.152 29.6975 117.898 29.6296 117.605 29.6296C117.298 29.6296 117.037 29.7011 116.822 29.8442C116.607 29.9801 116.443 30.1732 116.328 30.4235C116.214 30.6739 116.157 30.9743 116.157 31.3247C116.157 31.6681 116.214 31.9685 116.328 32.226C116.443 32.4835 116.607 32.6802 116.822 32.8161C117.037 32.952 117.298 33.0199 117.605 33.0199Z" fill="#192B42"/>
<path d="M111.688 34.0713C111.273 34.0713 110.905 33.9998 110.583 33.8568C110.268 33.7066 110.004 33.5027 109.789 33.2452C109.582 32.9806 109.424 32.6837 109.317 32.3547C109.21 32.0257 109.156 31.6824 109.156 31.3247C109.156 30.9671 109.21 30.6238 109.317 30.2948C109.424 29.9657 109.582 29.6725 109.789 29.415C110.004 29.1575 110.268 28.9572 110.583 28.8142C110.905 28.664 111.273 28.5889 111.688 28.5889C112.21 28.5889 112.665 28.714 113.051 28.9644C113.444 29.2147 113.734 29.601 113.92 30.1231L112.868 30.5308C112.783 30.259 112.643 30.0408 112.45 29.8763C112.257 29.7047 112.003 29.6188 111.688 29.6188C111.374 29.6188 111.116 29.7011 110.916 29.8656C110.723 30.0301 110.58 30.2411 110.487 30.4986C110.394 30.7561 110.347 31.0315 110.347 31.3247C110.347 31.618 110.394 31.897 110.487 32.1616C110.58 32.4191 110.723 32.6301 110.916 32.7946C111.116 32.952 111.374 33.0306 111.688 33.0306C112.003 33.0306 112.257 32.9484 112.45 32.7839C112.643 32.6194 112.783 32.4012 112.868 32.1294L113.92 32.5371C113.734 33.0521 113.444 33.4383 113.051 33.6958C112.665 33.9462 112.21 34.0713 111.688 34.0713Z" fill="#192B42"/>
<path d="M105.879 34.0713C105.464 34.0713 105.095 33.9998 104.774 33.8568C104.459 33.7066 104.194 33.5027 103.98 33.2452C103.772 32.9806 103.615 32.6837 103.508 32.3547C103.4 32.0257 103.347 31.6824 103.347 31.3247C103.347 30.9671 103.4 30.6238 103.508 30.2948C103.615 29.9657 103.772 29.6725 103.98 29.415C104.194 29.1575 104.459 28.9572 104.774 28.8142C105.095 28.664 105.464 28.5889 105.879 28.5889C106.401 28.5889 106.855 28.714 107.241 28.9644C107.635 29.2147 107.924 29.601 108.11 30.1231L107.059 30.5308C106.973 30.259 106.834 30.0408 106.64 29.8763C106.447 29.7047 106.193 29.6188 105.879 29.6188C105.564 29.6188 105.306 29.7011 105.106 29.8656C104.913 30.0301 104.77 30.2411 104.677 30.4986C104.584 30.7561 104.538 31.0315 104.538 31.3247C104.538 31.618 104.584 31.897 104.677 32.1616C104.77 32.4191 104.913 32.6301 105.106 32.7946C105.306 32.952 105.564 33.0306 105.879 33.0306C106.193 33.0306 106.447 32.9484 106.64 32.7839C106.834 32.6194 106.973 32.4012 107.059 32.1294L108.11 32.5371C107.924 33.0521 107.635 33.4383 107.241 33.6958C106.855 33.9462 106.401 34.0713 105.879 34.0713Z" fill="#192B42"/>
<path d="M95.7378 33.9746L98.699 26.4966H99.6431L102.594 33.9746H101.242L99.171 28.3098L97.1004 33.9746H95.7378ZM97.5832 32.4082L97.9694 31.3031H100.362L100.77 32.4082H97.5832Z" fill="#192B42"/>
<path d="M87.1077 33.9748V28.6854H88.2986V29.8549L88.084 29.9085C88.177 29.601 88.3129 29.3506 88.4917 29.1575C88.6705 28.9644 88.8779 28.8213 89.114 28.7283C89.3572 28.6354 89.6111 28.5889 89.8757 28.5889C90.4694 28.5889 90.9307 28.7605 91.2598 29.1039C91.5959 29.44 91.764 29.9228 91.764 30.5523V33.9748H90.5731V30.9921C90.5731 30.5201 90.4873 30.1732 90.3156 29.9514C90.144 29.7297 89.8793 29.6188 89.5217 29.6188C89.257 29.6188 89.0317 29.6832 88.8458 29.812C88.6669 29.9336 88.531 30.1267 88.4381 30.3913C88.3451 30.656 88.2986 30.9921 88.2986 31.3998V33.9748H87.1077Z" fill="#192B42"/>
<path d="M83.1144 34.0713C82.6137 34.0713 82.1631 33.9533 81.7626 33.7173C81.362 33.4813 81.0473 33.1558 80.8184 32.741C80.5967 32.3261 80.4858 31.854 80.4858 31.3247C80.4858 30.7954 80.5967 30.3234 80.8184 29.9085C81.0473 29.4937 81.3585 29.1718 81.7519 28.9429C82.1524 28.7069 82.6066 28.5889 83.1144 28.5889C83.6294 28.5889 84.08 28.7069 84.4663 28.9429C84.8597 29.1718 85.1708 29.4937 85.3997 29.9085C85.6286 30.3234 85.743 30.7954 85.743 31.3247C85.743 31.854 85.6286 32.3261 85.3997 32.741C85.178 33.1558 84.8668 33.4813 84.4663 33.7173C84.0729 33.9533 83.6223 34.0713 83.1144 34.0713ZM83.1252 33.0199C83.4184 33.0199 83.6723 32.952 83.8869 32.8161C84.1015 32.6802 84.266 32.4835 84.3804 32.226C84.4949 31.9685 84.5521 31.6681 84.5521 31.3247C84.5521 30.9743 84.4949 30.6739 84.3804 30.4235C84.266 30.166 84.1015 29.9693 83.8869 29.8334C83.6723 29.6975 83.4184 29.6296 83.1252 29.6296C82.8176 29.6296 82.5565 29.7011 82.3419 29.8442C82.1274 29.9801 81.9629 30.1732 81.8484 30.4235C81.734 30.6739 81.6767 30.9743 81.6767 31.3247C81.6767 31.6681 81.734 31.9685 81.8484 32.226C81.9629 32.4835 82.1274 32.6802 82.3419 32.8161C82.5565 32.952 82.8176 33.0199 83.1252 33.0199Z" fill="#192B42"/>
<path d="M77.9401 33.9746V28.6853H79.131V33.9746H77.9401ZM77.8865 27.8162V26.4966H79.1847V27.8162H77.8865Z" fill="#192B42"/>
<path d="M75.7906 34.0715C75.526 34.0715 75.2756 34.0214 75.0396 33.9213C74.8107 33.814 74.6283 33.6459 74.4924 33.417C74.3565 33.181 74.2885 32.8734 74.2885 32.4943V27.3981L75.4902 26.7329V32.1617C75.4902 32.4622 75.5331 32.6946 75.6189 32.8591C75.7119 33.0165 75.8764 33.0952 76.1125 33.0952C76.184 33.0952 76.2662 33.088 76.3592 33.0737C76.4594 33.0522 76.5631 33.0272 76.6704 32.9986V33.9213C76.5273 33.9714 76.3807 34.0071 76.2305 34.0286C76.0874 34.0572 75.9408 34.0715 75.7906 34.0715ZM73.28 29.6083V28.6856H76.6704V29.6083H73.28Z" fill="#192B42"/>
<path d="M71.2316 33.9748L71.1457 33.0843V30.6381C71.1457 30.2948 71.042 30.0373 70.8346 29.8656C70.6272 29.6868 70.3375 29.5974 69.9656 29.5974C69.6795 29.5974 69.3969 29.6546 69.118 29.769C68.8462 29.8763 68.5958 30.0444 68.367 30.2733L67.7018 29.4901C68.0451 29.1682 68.4099 28.9393 68.7961 28.8034C69.1824 28.6604 69.6044 28.5889 70.0621 28.5889C70.7774 28.5889 71.3317 28.7713 71.7251 29.136C72.1257 29.4937 72.3259 29.9944 72.3259 30.6381V33.9748H71.2316ZM69.59 34.0713C69.1967 34.0713 68.8462 33.9998 68.5386 33.8568C68.2382 33.7137 68.0022 33.5134 67.8305 33.2559C67.666 32.9985 67.5837 32.698 67.5837 32.3547C67.5837 32.0615 67.6445 31.8075 67.7661 31.593C67.8949 31.3784 68.0594 31.2103 68.2597 31.0887C68.4313 30.9814 68.6316 30.9063 68.8605 30.8634C69.0894 30.8133 69.329 30.7883 69.5793 30.7883H71.2423V31.6788H69.751C69.6222 31.6788 69.4935 31.6931 69.3647 31.7217C69.236 31.7432 69.1216 31.7861 69.0214 31.8505C68.9499 31.9077 68.8891 31.9792 68.839 32.065C68.7961 32.1509 68.7747 32.251 68.7747 32.3654C68.7747 32.5943 68.8605 32.7767 69.0321 32.9126C69.211 33.0414 69.447 33.1057 69.7403 33.1057C69.9977 33.1057 70.2302 33.0485 70.4376 32.9341C70.6522 32.8196 70.8239 32.6623 70.9526 32.462C71.0814 32.2617 71.1457 32.0364 71.1457 31.7861L71.5105 32.3762C71.4247 32.7481 71.2888 33.0628 71.1028 33.3203C70.9169 33.5707 70.6951 33.7602 70.4376 33.889C70.1801 34.0105 69.8976 34.0713 69.59 34.0713Z" fill="#192B42"/>
<path d="M63.452 34.0712C62.9799 34.0712 62.5686 33.9532 62.2182 33.7171C61.8748 33.474 61.6102 33.1449 61.4242 32.7301C61.2382 32.3152 61.1453 31.8467 61.1453 31.3246C61.1453 30.7524 61.2454 30.2624 61.4457 29.8547C61.6531 29.447 61.9321 29.1359 62.2825 28.9213C62.633 28.6996 63.0228 28.5887 63.452 28.5887C63.7524 28.5887 64.0278 28.6495 64.2781 28.7711C64.5356 28.8927 64.7502 29.0715 64.9218 29.3076C65.1007 29.5364 65.2258 29.819 65.2974 30.1551L65.0184 30.1659V26.4966H66.2093V33.9746H65.0184V32.5048L65.3403 32.4297C65.2473 32.8159 65.1042 33.1306 64.9111 33.3738C64.7251 33.6099 64.507 33.7851 64.2567 33.8995C64.0063 34.014 63.7381 34.0712 63.452 34.0712ZM63.7417 32.9769C64.0206 32.9769 64.2638 32.9089 64.4712 32.773C64.6787 32.6371 64.8396 32.444 64.954 32.1936C65.0685 31.9433 65.1257 31.6536 65.1257 31.3246C65.1257 30.9956 65.0685 30.7095 64.954 30.4663C64.8396 30.2159 64.6787 30.0228 64.4712 29.8869C64.2638 29.7439 64.0206 29.6723 63.7417 29.6723C63.4627 29.6723 63.2159 29.7403 63.0014 29.8762C62.7939 30.0121 62.6294 30.2052 62.5078 30.4556C62.3934 30.7059 62.3362 30.9956 62.3362 31.3246C62.3362 31.6536 62.3934 31.9433 62.5078 32.1936C62.6294 32.444 62.7939 32.6371 63.0014 32.773C63.2159 32.9089 63.4627 32.9769 63.7417 32.9769Z" fill="#192B42"/>
<path d="M55.1843 33.9748V28.6854H56.3752V29.8549L56.1607 29.9085C56.2536 29.601 56.3895 29.3506 56.5684 29.1575C56.7472 28.9644 56.9546 28.8213 57.1906 28.7283C57.4338 28.6354 57.6877 28.5889 57.9524 28.5889C58.5461 28.5889 59.0074 28.7605 59.3364 29.1039C59.6726 29.44 59.8407 29.9228 59.8407 30.5523V33.9748H58.6498V30.9921C58.6498 30.5201 58.5639 30.1732 58.3923 29.9514C58.2206 29.7297 57.956 29.6188 57.5983 29.6188C57.3337 29.6188 57.1084 29.6832 56.9224 29.812C56.7436 29.9336 56.6077 30.1267 56.5147 30.3913C56.4217 30.656 56.3752 30.9921 56.3752 31.3998V33.9748H55.1843Z" fill="#192B42"/>
<path d="M50.8111 34.0715C50.3963 34.0715 50.0458 33.9892 49.7597 33.8247C49.4807 33.6602 49.2697 33.4242 49.1267 33.1166C48.9836 32.809 48.9121 32.4371 48.9121 32.0008V28.6855H50.103V31.6789C50.103 31.9579 50.1352 32.2011 50.1996 32.4085C50.2711 32.6088 50.382 32.7625 50.5322 32.8698C50.6895 32.9771 50.9005 33.0308 51.1652 33.0308C51.4727 33.0308 51.7124 32.9521 51.884 32.7947C52.0628 32.6302 52.188 32.3942 52.2595 32.0866C52.3382 31.7719 52.3776 31.3964 52.3776 30.9601V28.6855H53.5685V33.9749H52.3776V32.8376L52.5814 32.9127C52.4169 33.3133 52.1773 33.6065 51.8626 33.7925C51.555 33.9785 51.2045 34.0715 50.8111 34.0715Z" fill="#192B42"/>
<path d="M44.9828 34.0713C44.4822 34.0713 44.0315 33.9533 43.631 33.7173C43.2304 33.4813 42.9157 33.1558 42.6868 32.741C42.4651 32.3261 42.3542 31.854 42.3542 31.3247C42.3542 30.7954 42.4651 30.3234 42.6868 29.9085C42.9157 29.4937 43.2269 29.1718 43.6203 28.9429C44.0208 28.7069 44.475 28.5889 44.9828 28.5889C45.4978 28.5889 45.9484 28.7069 46.3347 28.9429C46.7281 29.1718 47.0392 29.4937 47.2681 29.9085C47.497 30.3234 47.6114 30.7954 47.6114 31.3247C47.6114 31.854 47.497 32.3261 47.2681 32.741C47.0464 33.1558 46.7352 33.4813 46.3347 33.7173C45.9413 33.9533 45.4907 34.0713 44.9828 34.0713ZM44.9936 33.0199C45.2868 33.0199 45.5407 32.952 45.7553 32.8161C45.9699 32.6802 46.1344 32.4835 46.2488 32.226C46.3633 31.9685 46.4205 31.6681 46.4205 31.3247C46.4205 30.9743 46.3633 30.6739 46.2488 30.4235C46.1344 30.166 45.9699 29.9693 45.7553 29.8334C45.5407 29.6975 45.2868 29.6296 44.9936 29.6296C44.686 29.6296 44.4249 29.7011 44.2104 29.8442C43.9958 29.9801 43.8313 30.1732 43.7168 30.4235C43.6024 30.6739 43.5452 30.9743 43.5452 31.3247C43.5452 31.6681 43.6024 31.9685 43.7168 32.226C43.8313 32.4835 43.9958 32.6802 44.2104 32.8161C44.4249 32.952 44.686 33.0199 44.9936 33.0199Z" fill="#192B42"/>
<path d="M36.7617 33.9746V26.4966H41.7292V27.6017H38.0063V29.5865H41.2357V30.7023H38.0063V33.9746H36.7617Z" fill="#192B42"/>
</svg>
